<?xml version="1.0" encoding="UTF-8"?>
<svg id="uuid-791fdb3d-0a62-4092-8544-a0484cd2f318" data-name="Livello 1" xmlns="http://www.w3.org/2000/svg" viewBox="0 0 154 154">
  <path d="M64.04,36.87c.6-.77,1.76-1.42,2.62-1.03.51.24.8-.43.23-.54-.6-.1-1.21-.03-1.77.22-.56.25-1.03.65-1.35,1.16-.01.02-.02.04-.02.06,0,.02,0,.04,0,.06,0,.02.01.04.02.06.01.02.03.03.04.05.02.01.04.02.06.02.02,0,.04,0,.06,0s.04-.01.06-.02c.02-.01.03-.03.05-.04ZM65.29,38.97c-.46-.42-1.66,1.37-1.05,1.74.35.2,1.52-1.31,1.05-1.74ZM75.32,38.6c.44.25.81.61,1.07,1.04.26.43.4.92.42,1.43,0,.04.01.07.03.1.02.03.05.05.09.06.04,0,.07,0,.11,0,.03-.01.06-.04.08-.07.48-1.25-.48-2.48-1.48-3.14-.41-.28-.74.47-.32.59ZM69.82,51.16c1.08-.87,2.84-1.03,3.72.24.66.96.1,2.13-1.08,1.84-.33-.14-.66-.29-.97-.48-.03-.01-.06-.01-.09,0-.03,0-.06.02-.08.04-.02.02-.04.05-.05.08,0,.03,0,.06,0,.09.42,1.26,2.92,1.2,3.11-.46.23-1.99-2.72-3.56-4.73-1.53-.03.02-.04.05-.04.09,0,.03,0,.07.03.09.02.03.05.04.09.04.03,0,.07,0,.09-.03ZM72.53,43.69c.77.35,1.53-1.57.91-1.83-.62-.26-1.39,1.63-.91,1.83ZM67.49,46.51c1.08.44.91-.12.77-.25-.87-.44-1.77-.83-2.7-1.15,1.13-1.79,2.19-3.6,3.43-5.31.11-.15-.12-.33-.23-.18-1.17,1.63-2.35,3.26-3.47,4.91-.72,1.05-.49.89,2.21,1.98ZM95.05,110.12c.53-.27.95-.71,1.2-1.26.24-.54.29-1.15.14-1.73-.15-.57-.5-1.08-.99-1.43-.48-.35-1.07-.52-1.66-.49-4.01,0-3.68,7.64,1.32,4.9ZM111.62,92.55c1.67,1.61,5.49.92,4.31-2.45-1.4-4.02-7.34-.47-4.31,2.45ZM107.17,121.36c-5.26.43-2.49,7.72,1.24,5.51,2.54-1.51,1.4-5.76-1.24-5.51ZM93.59,83.98c-.61-2.55-4.87-3.19-5.82-.23-1.49,4.67,6.79,4.35,5.82.23ZM126.14,109.96c-5.33,1.93,2.71,9.76,4.09,2.76.51-2.57-1.93-3.54-4.09-2.76ZM76.01,98.19c-.6.09-1.15.37-1.56.81-.41.44-.67,1.01-.72,1.61-.05.6.11,1.2.44,1.7.34.5.83.88,1.41,1.06,3.95,1.18,4.61-5.8.43-5.18Z"/>
  <path d="M138.87,120.12c-.27-11.99-7.59-24.46-15.03-33.61,1.79-2.46,2.81-5.4,2.9-8.44.1-3.04-.72-6.04-2.35-8.61-2.09-3.3-4.91-4.44-5.8-6.9-1.07-2.93.27-6.13.08-9.09-.21-3.56-2.3-7.47-5.97-8.43-2.44-.64-6.04.5-7.35-3.95-1.03-3.49.77-8.65-2.3-13.51-1.64-2.61-4.53-4.06-7.34-5.05-3.56-1.25-7.77-1.74-11.19.12-2.05-.79-4.26-1.07-6.44-.8,2.41-2.51,3.45-7.74,2.3-11.05-.35-1.03-6.31,3.21-6.74,8.52-2.41-2.83-4.8-3.77-8.31-4.22-1.35-.18,1.46,6.83,3.88,7.76-1.84.17-4.38.77-5.71,2.12-.42.5-.73,1.08-.91,1.7-.19.62-.25,1.28-.17,1.93.07.65.27,1.27.59,1.84.32.57.75,1.07,1.26,1.46-2.74,4.35-5.14,9.14-5.6,14.34-2.18.54-4.06,1.92-5.23,3.83-3.26,4.75.53,6.9-.68,10.66-1.43,4.51-5.76,2.84-7.82,5.83-1.53,2.17-1.17,5.23.31,7.34-2.25,1.29-5.07,2.89-6.85,4.74.41-11.81-1.13-22.74-1.72-25.17-.08-.32-1.29-.07-1.61-.05.66-1.42,1.11-2.92,1.34-4.47.13-1.44,0-3.5-1.85-3.62-.16-.45,0-5.11-2.95-7.67-.64-.56-1.33-.67-1.31.35,0,1.53,1.07,2.87,1.21,5.37-.7.04-1.37.28-1.94.7-2.6-.67-5.41,5.23-3.07,5.66-.31,1.1-.24,2.26.21,3.31-.21,0-.65-.17-.77.07-5.54,10.81-13.35,30.15-11.21,42.05,2.49,13.85,17.4,17.7,29.58,16.32.72,6.89,2.74,13.58,5.96,19.72.9,1.7,4.6,8.98,6.65,10.68-.58,2.45-.88,4.95-.88,7.47,0,.25.37.21.38,0,.08-2.35.4-4.69.94-6.98,1.69.71,3.42,1.33,5.17,1.87,13.79,4.13,28.47,4.25,42.33.35,2.03-.58,4.22-1.11,5.99-2.3.7,2.3,1.46,4.5,2.21,6.75,0,.02.01.04.03.05.01.01.03.03.04.04.02,0,.04.01.06.02.02,0,.04,0,.06,0,.02,0,.04-.01.05-.03.01-.01.03-.03.04-.04,0-.02.01-.04.02-.06,0-.02,0-.04,0-.06-.69-2.47-1.36-4.94-2.1-7.38.49-2.19.75-4.43.77-6.68,4.69.67,11.33,1.23,15.94.3,4.61-.93,8.47-3.43,9.97-8.06.72-2.27,1.04-4.64.96-7.01ZM89.39,27.55c1.41,2.67,1.79,6.57,1.35,9.51-.29,2.22-1.18,4.32-2.58,6.06l-.77-.21c1.89-6.13.16-13.15-5.23-16.92-2.14-1.36-4.53-2.28-7.04-2.7,4.5-2.59,11.83-.37,14.27,4.26ZM80.14,11.28c.44,6.07-.46,8.14-3.07,10.73-.49.11-.97.27-1.43.5-.38-1.02-.94-1.97-1.63-2.81.65-3.51,2.64-7.05,6.12-8.42ZM65.53,15.49c0-.11,0-.08.09-.06,5.2,1.19,7.15,2.61,9.55,7.34-.18.12-.36.25-.51.4-1.48-.3-2.99-.43-4.5-.4-2.41-.42-4.24-5.1-4.63-7.28ZM64.84,32.19c4.98,2.72,12.92,5.05,18.81,4.28-1.6,1.93-2.42,4.39-2.3,6.9.09,1.95,1.3,3.22,2.99,1.78.88-.77,2.01-2.11,3.33-1.67,1.32.44,1.14,1.95.6,3.07-2.02,4.13-5.89,3.44-4.38,12.98.26,1.62.66,3.22,1.2,4.77-.26,1.25-.94,2.36-1.93,3.16-4.55,4.12-13.28,3.14-13.14-2.53.04-1.56,0-3.13-.11-4.68-3.01-.61-6.84-2.01-8.72-4.65-.64-.96-1.11-2.02-1.4-3.14-1.3-4.51-.41-9.32,1.41-13.56,1.01-2.34,2.23-4.58,3.64-6.7ZM85.59,64.6c.84.08,1.65.19,2.45.32,0,.61.77,3.07.18,6.03-.57,3.14-2.8,6.39-6.2,6.67-5.14.41-6.32-4.66-6.3-7.13,6.57.47,10.15-4.83,9.88-5.89ZM74.7,70.36c-.36,0-1.24,3.53-4.43,4.25-3.02.69-4.86-1.72-4.3-4.6.44-2.3,2.12-3.89,2.45-4.6l1.07-.24c-.23,2.93,2.28,4.69,5.22,5.19ZM35.26,45.99c1.2.77.61,3.66.25,4.75-.29.9-.64,1.79-.96,2.68-2.44.11-4.89,0-7.31-.35-.33-1.1-.44-2.25-.34-3.4.35-.1.65-.31.86-.61.71.84,1.76-.36,2.3-.87l1.34.21c-.92.66-1.58,1.61-1.89,2.7,0,.03.02.07.04.09.02.02.05.04.09.05.03,0,.07,0,.1-.01.03-.02.05-.04.07-.07.22-.6.56-1.14,1-1.6.44-.46.97-.82,1.56-1.06.98-.28.77-.67,0-.52-.24.05-2.64-.08-2.69-.47-.05-.39,4.22-2.38,5.59-1.51ZM31.61,43.8v.92c0,.15.26.15.29,0,.61-3.35-1-4.82-1-6.84,0-.38.25-.11.43,0,2.51,2.02,2.73,5.72,2.78,7.4-1.5.14-2.95.64-4.22,1.47-.64.35-1.17.94-.28,1.32-.37.27-1.3,1.33-1.64.53-.34-.8.9-4.74,3.62-4.82l.02.02ZM26.21,48.78c-.15-1.73,1.12-4.1,2.92-4.32-1.03,1-1.95,3.31-1.6,4.32-.31.42-1.28.99-1.34-.02l.02.02ZM26.31,53.29c3.1.9,6.75.6,9.97.5l.62,4.34c-4.13.33-8.29,0-12.3-1.02.55-1.29,1.13-2.54,1.69-3.83l.02.02ZM136.69,128.72c-3.53-4.07-7.3,2.3-4.09,4.17-2.74,1.59-5.93,2.08-9.05,2.16-11.28.31-23.14-2.51-33.33-7.3.52-6.13-.91-10.9-2.99-14.03,8.61-2.2,15.24-2.75,23.53-3.24.14,0,.17-.24,0-.25-1.61-.07-3.22-.05-4.82.08-.15-.68-5.15-5.76-9.97-16.1-.08-.16-.33-.08-.26.08,2.43,5.47,5.5,10.64,9.15,15.38.16.21.33.43.51.64-8.44.48-16.78,2.07-24.8,4.74-.37.13-.12.51.1.67-1.15.06-2.28.25-3.39.56-.51-.28-2.18-.4-3.43-1.6-1.53-1.53-1.66,2.06.3,2.9-5.23,2.86-6.41,7.14-4.89,6.98.37-.04.66-.4.92-.65.45-.42.92-.83,1.36-1.28-2.18,4.6.1,6.01.72,3.83.42-1.46,1.21-2.78,2.3-3.83-1.3,2.54-.15,5.7.97,4.85.63-.49.4-3.07,2.58-4.29.25-.13.51-.21.77-.34.7.87,2.98,2.06,5.57,2.06.08.18.08.26.19.33,8.25,4.84,17.36,8.04,26.83,9.44-.02,2.32-.28,4.63-.77,6.9-2.18,1.47-7.24,2.71-9.9,3.3-10.23,2.28-20.83,2.41-31.11.4-2.37-.47-11.08-2.41-12.46-4.02-2.6-3.01-3.76-5.73-5.72-9.2-3.9-6.94-6.65-15.98-6.75-23.95-.16-6.2,1.46-12.32,4.66-17.63,1.5-2.23,3.13-4.38,4.88-6.43.12-.14-.09-.33-.21-.19-2.94,3.33-5.47,6.35-7.24,10.48-2.16,5.2-3.04,10.84-2.55,16.45-9.51,1.2-20.27-.61-26.15-8.94,2.52-1.03,1.72-6.52-2.57-5.6-1.95-7.67,1.12-18.94,3.62-26.06,1.53-4.38,3.34-8.64,5.26-12.87,1.95.97,8.38,1.67,12.52,1.27,1.11,9.09,1.34,18.27.69,27.41,0,.17.25.17.28,0,.33-2.25.51-4.51.52-6.78,3.3-3.14,9.01-6.13,13.13-8.07-.57,1.49.93,3.26,2.49,3.25,3.22,0,3.25-4.39,1-4.79,4.07-1.68,8.26-3.03,12.55-4.05-1.53,2.06-3.07,4.68-1.95,7.29,1.3,3.13,5.92,3.44,8.59-.9-3.52,7.4-5.8,15.33-6.74,23.48,0,.18.25.25.28.06,1.17-8.4,3.66-16.56,7.38-24.18.03,1.7.6,3.35,1.61,4.71,3.92,5.15,14.18,1.02,11.77-11,5.72,1.02,11.23,3.01,16.27,5.9-.55.48-.9,1.15-.99,1.88-.09.73.09,1.46.5,2.07.21.32.49.6.8.82.32.22.68.37,1.06.45s.77.08,1.15,0c.38-.07.74-.22,1.06-.43.3-.22.54-.51.71-.85.17-.34.25-.71.25-1.08,8.36,5.83,15.09,13.71,20.46,22.3,4.12,6.59,7.73,14.39,8.32,22.32.26,3.49.05,7.17-1.51,10.32h0ZM75.82,121.11l-.71.77c-3.38,2.3-3.07,5.85-3.83,5.12-.94-.92.64-4.95,2.05-6.21,1.21-1.07-.19-.92-1.3.94l-.06.06c-.86.7-1.68,1.44-2.46,2.22-1.72,1.58.55-7.06,11.57-7.88,2.3,2.11,2.9,5.3,3.3,8.3-3.13,0-5.28-1.96-5.57-1.92-1.71.2-2.81,2.13-3.23,3.62-.05.18-.18,1-.36,1.06-.57.2-1.67-3.46.77-5.83.18-.18-.02-.38-.17-.24ZM74.55,117.37c-1.37-.41-1.77-2.74-1.26-2.64.93.83,2.04,1.44,3.24,1.78-.68.22-1.34.5-1.98.83v.02ZM80.89,115.52c-.21,0,4.6-1.37,5.97-1.72,2.94,5.27,3.17,9.2,2.81,13.71l-4.66-2.42c-.51-4.37-1.87-8.14-4.12-9.6v.02Z"/>
  <path d="M33.68,101.43c.95,1.89,5.37,1.24,5.22-1.68-.2-4.19-7.44-2.71-5.22,1.68ZM30.19,66.08c.11-4.07-4.79-3.44-5.3.57-.27,2.05,5.18,3.82,5.3-.57ZM29.47,77.03c-1.03.99-.95,4.29,1.92,4.22,4.96-.12,1.31-7.32-1.92-4.22ZM55.12,120.35c1.53,2.14,5.13.58,4.52-2.2-.86-3.93-7.05-1.3-4.52,2.2ZM58.5,86.9c-3.12,0-3.53,4.3-1.28,5.3,5.34,2.36,5.58-5.3,1.28-5.3ZM78.44,138.59c3,2.05,6.9-2.91,3.53-4.86-3.55-2.08-6.68,2.72-3.53,4.86Z"/>
</svg>